<?xml version="1.0" encoding="UTF-8"?>
<svg  width="2048" height="2048" enable-background="new" version="1.1" viewBox="0 0 541.87 541.87" xmlns="http://www.w3.org/2000/svg" xmlns:cc="http://creativecommons.org/ns#" xmlns:dc="http://purl.org/dc/elements/1.1/" xmlns:rdf="http://www.w3.org/1999/02/22-rdf-syntax-ns#">
<defs>
<filter id="a" color-interpolation-filters="sRGB">
<feBlend in2="BackgroundImage" mode="luminosity"/>
</filter>
</defs>
<metadata>
<rdf:RDF>
<cc:Work rdf:about="">
<dc:format>image/svg+xml</dc:format>
<dc:type rdf:resource="http://purl.org/dc/dcmitype/StillImage"/>
</cc:Work>
</rdf:RDF>
</metadata>
<rect transform="translate(0 244.87)" filter="url(#a)" x="8.5265e-14" y="-244.87" width="541.87" height="541.87" fill="#737373" stroke-linecap="square" stroke-width="40.61"/>
<rect transform="translate(0 244.87)" filter="url(#a)" x="270.93" y="-244.87" width="270.93" height="270.93" fill="#8c8c8c" stroke-linecap="square" stroke-width="20.305"/>
<rect transform="translate(0 244.87)" filter="url(#a)" y="26.067" width="270.93" height="270.93" fill="#8c8c8c" stroke-linecap="square" stroke-width="20.305"/>
<path transform="translate(0 244.87)" filter="url(#a)" d="m405.98-205.5c-13.098 0-23.707 10.609-23.707 23.707 0 5.2748 1.7181 10.135 4.6229 14.105-11.557 6.6379-19.44 19.025-19.44 33.308 0 12.031 5.5711 22.758 14.283 29.811-17.78 6.2823-43.917 32.893-43.917 79.832h136.31c0-46.939-26.137-73.55-43.917-79.832 8.7122-7.0527 14.283-17.78 14.283-29.811 0-14.283-7.8826-26.67-19.44-33.308 2.9042-3.9709 4.6228-8.8307 4.6228-14.105 0-13.098-10.609-23.707-23.707-23.707z" stroke="#000" stroke-linecap="round" stroke-width="8.89"/>
<path transform="translate(0 244.87)" filter="url(#a)" d="m130.81 73.48c-13.098 0-23.707 10.609-23.707 23.707 0 5.2748 1.7181 10.135 4.6229 14.105-11.557 6.6378-19.44 19.025-19.44 33.308 0 12.031 5.5711 22.758 14.283 29.811-17.78 6.2823-43.917 32.893-43.917 79.832h136.31c0-46.939-26.137-73.55-43.917-79.832 8.7122-7.0527 14.283-17.78 14.283-29.811 0-14.283-7.8826-26.67-19.44-33.308 2.9042-3.9709 4.6228-8.8307 4.6228-14.105 0-13.098-10.609-23.707-23.707-23.707z" fill="#fff" stroke="#000" stroke-linecap="round" stroke-width="8.89"/>
</svg>
