<!--

license:
Creative Commons Attribution-Share Alike 3.0 Unported

svgs of pieces were made by: https://commons.wikimedia.org/wiki/User:Cburnett

taken from wikimedia, https://commons.wikimedia.org/wiki/Category:SVG_chess_pieces

every piece is 45x45

changes to original files from wikimedia:
- original files were individual svgs, this one is combination of all white pieces
- fill and stroke are replaced with css variables
- "svg" was replaced with "symbol", unnecessary "g" were removed.
- svg has display none
- added defs

no changes were done to the images themselves
-->
<svg style="display: none" xmlns="http://www.w3.org/2000/svg">
  <defs>

    <symbol id="king" width="45" height="45" fill="none" fill-rule="evenodd" stroke="var(--piece-outline)" stroke-linecap="round" stroke-linejoin="round" stroke-width="1.5">
      <path stroke-linejoin="miter" d="M22.5 11.63V6M20 8h5"/>
      <path fill="var(--piece-color)" stroke-linecap="butt" stroke-linejoin="miter" d="M22.5 25s4.5-7.5 3-10.5c0 0-1-2.5-3-2.5s-3 2.5-3 2.5c-1.5 3 3 10.5 3 10.5"/>
      <path fill="var(--piece-color)" d="M12.5 37c5.5 3.5 14.5 3.5 20 0v-7s9-4.5 6-10.5c-4-6.5-13.5-3.5-16 4V27v-3.5c-2.5-7.5-12-10.5-16-4-3 6 6 10.5 6 10.5v7"/>
      <path d="M12.5 30c5.5-3 14.5-3 20 0m-20 3.5c5.5-3 14.5-3 20 0m-20 3.5c5.5-3 14.5-3 20 0"/>
   </symbol>

    <symbol id="queen" width="45" height="45" style="fill:var(--piece-color);stroke:var(--piece-outline);stroke-width:1.5;stroke-linejoin:round">
      <path d="M 9,26 C 17.5,24.5 30,24.5 36,26 L 38.5,13.5 L 31,25 L 30.7,10.9 L 25.5,24.5 L 22.5,10 L 19.5,24.5 L 14.3,10.9 L 14,25 L 6.5,13.5 L 9,26 z"/>
      <path d="M 9,26 C 9,28 10.5,28 11.5,30 C 12.5,31.5 12.5,31 12,33.5 C 10.5,34.5 11,36 11,36 C 9.5,37.5 11,38.5 11,38.5 C 17.5,39.5 27.5,39.5 34,38.5 C 34,38.5 35.5,37.5 34,36 C 34,36 34.5,34.5 33,33.5 C 32.5,31 32.5,31.5 33.5,30 C 34.5,28 36,28 36,26 C 27.5,24.5 17.5,24.5 9,26 z"/>
      <path d="M 11.5,30 C 15,29 30,29 33.5,30" style="fill:none"/>
      <path d="M 12,33.5 C 18,32.5 27,32.5 33,33.5" style="fill:none"/>
      <circle cx="6" cy="12" r="2"/>
      <circle cx="14" cy="9" r="2"/>
      <circle cx="22.5" cy="8" r="2"/>
      <circle cx="31" cy="9" r="2"/>
      <circle cx="39" cy="12" r="2"/>
    </symbol>

    <symbol id="rook" width="45" height="45" style="opacity:1; fill:var(--piece-color); fill-opacity:1; fill-rule:evenodd; stroke:var(--piece-outline); stroke-width:1.5; stroke-linecap:round;stroke-linejoin:round;stroke-miterlimit:4; stroke-dasharray:none; stroke-opacity:1;" transform="translate(0,0.3)">
      <path d="M 9,39 L 36,39 L 36,36 L 9,36 L 9,39 z " style="stroke-linecap:butt;"/>
      <path d="M 12,36 L 12,32 L 33,32 L 33,36 L 12,36 z " style="stroke-linecap:butt;"/>
      <path d="M 11,14 L 11,9 L 15,9 L 15,11 L 20,11 L 20,9 L 25,9 L 25,11 L 30,11 L 30,9 L 34,9 L 34,14" style="stroke-linecap:butt;"/>
      <path d="M 34,14 L 31,17 L 14,17 L 11,14"/>
      <path d="M 31,17 L 31,29.5 L 14,29.5 L 14,17" style="stroke-linecap:butt; stroke-linejoin:miter;"/>
      <path d="M 31,29.5 L 32.5,32 L 12.5,32 L 14,29.5"/>
      <path d="M 11,14 L 34,14" style="fill:none; stroke:var(--piece-outline); stroke-linejoin:miter;"/>
    </symbol>

    <symbol id="bishop" width="45" height="45" style="opacity:1; fill:none; fill-rule:evenodd; fill-opacity:1; stroke:var(--piece-outline); stroke-width:1.5; stroke-linecap:round; stroke-linejoin:round; stroke-miterlimit:4; stroke-dasharray:none; stroke-opacity:1;" transform="translate(0,0.6)">
      <g style="fill:var(--piece-color); stroke:var(--piece-outline); stroke-linecap:butt;">
        <path d="M 9,36 C 12.39,35.03 19.11,36.43 22.5,34 C 25.89,36.43 32.61,35.03 36,36 C 36,36 37.65,36.54 39,38 C 38.32,38.97 37.35,38.99 36,38.5 C 32.61,37.53 25.89,38.96 22.5,37.5 C 19.11,38.96 12.39,37.53 9,38.5 C 7.65,38.99 6.68,38.97 6,38 C 7.35,36.54 9,36 9,36 z"/>
        <path d="M 15,32 C 17.5,34.5 27.5,34.5 30,32 C 30.5,30.5 30,30 30,30 C 30,27.5 27.5,26 27.5,26 C 33,24.5 33.5,14.5 22.5,10.5 C 11.5,14.5 12,24.5 17.5,26 C 17.5,26 15,27.5 15,30 C 15,30 14.5,30.5 15,32 z"/>
        <path d="M 25 8 A 2.5 2.5 0 1 1  20,8 A 2.5 2.5 0 1 1  25 8 z"/>
      </g>
      <path d="M 17.5,26 L 27.5,26 M 15,30 L 30,30 M 22.5,15.5 L 22.5,20.5 M 20,18 L 25,18" style="fill:none; stroke:var(--piece-outline); stroke-linejoin:miter;"/>
    </symbol>

    <symbol id="knight" width="45" height="45" style="opacity:1; fill:none; fill-opacity:1; fill-rule:evenodd; stroke:var(--piece-outline); stroke-width:1.5; stroke-linecap:round;stroke-linejoin:round;stroke-miterlimit:4; stroke-dasharray:none; stroke-opacity:1;" transform="translate(0,0.3)">
      <path d="M 22,10 C 32.5,11 38.5,18 38,39 L 15,39 C 15,30 25,32.5 23,18" style="fill:var(--piece-color); stroke:var(--piece-outline);"/>
      <path d="M 24,18 C 24.38,20.91 18.45,25.37 16,27 C 13,29 13.18,31.34 11,31 C 9.958,30.06 12.41,27.96 11,28 C 10,28 11.19,29.23 10,30 C 9,30 5.997,31 6,26 C 6,24 12,14 12,14 C 12,14 13.89,12.1 14,10.5 C 13.27,9.506 13.5,8.5 13.5,7.5 C 14.5,6.5 16.5,10 16.5,10 L 18.5,10 C 18.5,10 19.28,8.008 21,7 C 22,7 22,10 22,10" style="fill:var(--piece-color); stroke:var(--piece-outline);"/>
      <path d="M 9.5 25.5 A 0.5 0.5 0 1 1 8.5,25.5 A 0.5 0.5 0 1 1 9.5 25.5 z" style="fill:#000000; stroke:var(--piece-outline);"/>
      <path d="M 15 15.5 A 0.5 1.5 0 1 1  14,15.5 A 0.5 1.5 0 1 1  15 15.5 z" transform="matrix(0.866,0.5,-0.5,0.866,9.693,-5.173)" style="fill:#000000; stroke:var(--piece-outline);"/>
    </symbol>

    <symbol id="pawn" width="45" height="45">
      <path d="m 22.5,9 c -2.21,0 -4,1.79 -4,4 0,0.89 0.29,1.71 0.78,2.38 C 17.33,16.5 16,18.59 16,21 c 0,2.03 0.94,3.84 2.41,5.03 C 15.41,27.09 11,31.58 11,39.5 H 34 C 34,31.58 29.59,27.09 26.59,26.03 28.06,24.84 29,23.03 29,21 29,18.59 27.67,16.5 25.72,15.38 26.21,14.71 26.5,13.89 26.5,13 c 0,-2.21 -1.79,-4 -4,-4 z" style="opacity:1; fill:var(--piece-color); fill-opacity:1; fill-rule:nonzero; stroke:var(--piece-outline); stroke-width:1.5; stroke-linecap:round; stroke-linejoin:miter; stroke-miterlimit:4; stroke-dasharray:none; stroke-opacity:1;"/>
    </symbol>

    <symbol id="square" width="12.5%" height="12.5%">
      <!--
          you might have a question:
          why the stroke and stroke-width?
          at the moment I write this (2023-01-14) the #board at some zoom levels would render with gaps between squares
          it is hard to give a name to this problem, I asked in several places with one response that it is because of antialiasing and it cannot be fixed.
          Several solutions exist, like:
          - adding small stroke
          - using filter blend with mode="normal" and in="sourceGraphic" (this did not work)
          - using shape-rendering="crispEdges" (this did not work)
          - a work around just to render board is to use svg pattern of one color of chess board over a background of other color (this would not work if you want to highlight squares above chessboard as the background squares would be bigger)
          related links:
          https://stackoverflow.com/questions/47451435/svg-prevent-transparent-gaps-between-adjacent-polygons
      -->
      <rect
          width="100%"
          height="100%"
          fill="var(--square-color)"
          stroke="var(--square-color)"
          stroke-width="100"/>
    </symbol>


    <symbol id="board"
            >
	    <use x="0" y="0" href="#square" class="square--white"></use>
	    <use x="55" y="0" href="#square" class="square--black"></use>
	    <use x="110" y="0" href="#square" class="square--white"></use>
	    <use x="165" y="0" href="#square" class="square--black"></use>
	    <use x="220" y="0" href="#square" class="square--white"></use>
	    <use x="275" y="0" href="#square" class="square--black"></use>
	    <use x="330" y="0" href="#square" class="square--white"></use>
	    <use x="385" y="0" href="#square" class="square--black"></use>
	    <use x="0" y="55" href="#square" class="square--black"></use>
	    <use x="55" y="55" href="#square" class="square--white"></use>
	    <use x="110" y="55" href="#square" class="square--black"></use>
	    <use x="165" y="55" href="#square" class="square--white"></use>
	    <use x="220" y="55" href="#square" class="square--black"></use>
	    <use x="275" y="55" href="#square" class="square--white"></use>
	    <use x="330" y="55" href="#square" class="square--black"></use>
	    <use x="385" y="55" href="#square" class="square--white"></use>
	    <use x="0" y="110" href="#square" class="square--white"></use>
	    <use x="55" y="110" href="#square" class="square--black"></use>
	    <use x="110" y="110" href="#square" class="square--white"></use>
	    <use x="165" y="110" href="#square" class="square--black"></use>
	    <use x="220" y="110" href="#square" class="square--white"></use>
	    <use x="275" y="110" href="#square" class="square--black"></use>
	    <use x="330" y="110" href="#square" class="square--white"></use>
	    <use x="385" y="110" href="#square" class="square--black"></use>
	    <use x="0" y="165" href="#square" class="square--black"></use>
	    <use x="55" y="165" href="#square" class="square--white"></use>
	    <use x="110" y="165" href="#square" class="square--black"></use>
	    <use x="165" y="165" href="#square" class="square--white"></use>
	    <use x="220" y="165" href="#square" class="square--black"></use>
	    <use x="275" y="165" href="#square" class="square--white"></use>
	    <use x="330" y="165" href="#square" class="square--black"></use>
	    <use x="385" y="165" href="#square" class="square--white"></use>
	    <use x="0" y="220" href="#square" class="square--white"></use>
	    <use x="55" y="220" href="#square" class="square--black"></use>
	    <use x="110" y="220" href="#square" class="square--white"></use>
	    <use x="165" y="220" href="#square" class="square--black"></use>
	    <use x="220" y="220" href="#square" class="square--white"></use>
	    <use x="275" y="220" href="#square" class="square--black"></use>
	    <use x="330" y="220" href="#square" class="square--white"></use>
	    <use x="385" y="220" href="#square" class="square--black"></use>
	    <use x="0" y="275" href="#square" class="square--black"></use>
	    <use x="55" y="275" href="#square" class="square--white"></use>
	    <use x="110" y="275" href="#square" class="square--black"></use>
	    <use x="165" y="275" href="#square" class="square--white"></use>
	    <use x="220" y="275" href="#square" class="square--black"></use>
	    <use x="275" y="275" href="#square" class="square--white"></use>
	    <use x="330" y="275" href="#square" class="square--black"></use>
	    <use x="385" y="275" href="#square" class="square--white"></use>
	    <use x="0" y="330" href="#square" class="square--white"></use>
	    <use x="55" y="330" href="#square" class="square--black"></use>
	    <use x="110" y="330" href="#square" class="square--white"></use>
	    <use x="165" y="330" href="#square" class="square--black"></use>
	    <use x="220" y="330" href="#square" class="square--white"></use>
	    <use x="275" y="330" href="#square" class="square--black"></use>
	    <use x="330" y="330" href="#square" class="square--white"></use>
	    <use x="385" y="330" href="#square" class="square--black"></use>
	    <use x="0" y="385" href="#square" class="square--black"></use>
	    <use x="55" y="385" href="#square" class="square--white"></use>
	    <use x="110" y="385" href="#square" class="square--black"></use>
	    <use x="165" y="385" href="#square" class="square--white"></use>
	    <use x="220" y="385" href="#square" class="square--black"></use>
	    <use x="275" y="385" href="#square" class="square--white"></use>
	    <use x="330" y="385" href="#square" class="square--black"></use>
	    <use x="385" y="385" href="#square" class="square--white"></use>
    </symbol>

    <symbol id="square--controls" width="12.5%" height="12.5%">
      <rect width="100%" height="100%" fill="transparent" stroke="var(--square--controls)" stroke-width="20%" />
    </symbol>

    <!-- <symbol id="square-\-move" width="55" height="55"> -->
    <!--   <circle width="55" height="55" cx="27.5" cy="27.5" r="22.5" fill="var(-\-square-\-move)" /> -->
    <!-- </symbol> -->

    <symbol id="square--move" width="12.5%" height="12.5%">
      <circle width="100%" height="100%" cx="50%" cy="50%" r="40%" fill="var(--square--move)" />
    </symbol>



    <symbol id="square--controlled-by" width="12.5%" height="12.5%" viewBox="0 0 100 100">
      <!-- this is meant to be boolean difference of square and circle
           I did it by hand without any minification, and with small svg experience

to achieve such shape a path has to be used.
so draw a square using shape going in one direction
then draw a circle using shape going in other direction

put those two shapes into one path
      -->

      <!-- draw square -->
      <!-- <path d="M 0 0 H 45 V 45 H 0 Z" fill="green" /> -->
      <!-- draw circle -->
      <!-- <path d="M 22.5 22.5 m -22.5 0 a 22.5 22.5, 0, 1, 0, 45 0 a 22.5 22.5, 0, 1, 0, -45 0" fill="green" /> -->


      <!-- <!-\- draw square -\-> -->
      <!-- <path d="M 0 0 H 100% V 100% H 0 Z" fill="green" /> -->
      <!-- <!-\- draw circle -\-> -->
      <!-- <path d="M 50% 50% m -50% 0 a 50% 50%, 0, 1, 0, 100% 0 a 50% 50%, 0, 1, 0, -100% 0" fill="green" /> -->

      <path d="M 0 0 H 100 V 100 H 0 Z M 50 50 m -48 0 a 48 48, 0, 1, 0, 96 0 a 48 48, 0, 1, 0, -96 0" fill="var(--square--controlled-by)" width="10%" height="10%"   />

      <!-- square and circle -->
      <!-- <path d="M 0 0 H 45 V 45 H 0 Z M 22.5 22.5 m -22.5 0 a 22.5 22.5, 0, 1, 0, 45 0 a 22.5 22.5, 0, 1, 0, -45 0" fill="var(-\-square-\-controlled-by)" /> -->
    </symbol>

    <svg id="pattern" width="100%" height="100%" viewBox="0 0 200 200">
      <pattern id="pattern-checkers" x="0" y="0" width="50" height="50" patternUnits="userSpaceOnUse" >
        <rect x="0" y="0" width="25" height="25" class="square--white" fill="var(--square-color)" />
        <rect x="25" y="25" width="25" height="25" class="square--white" fill="var(--square-color)" />
      </pattern>
      <rect x="0" y="0" width="100%" height="100%" class="square--black" fill="var(--square-color)" />
      <rect x="0" y="0" width="100%" height="100%" fill="url(#pattern-checkers)" />
    </svg>


    <filter id="filter-black-and-white">
      <feColorMatrix
          type="matrix"
          values="0 1 0 0 0
                  0 1 0 0 0
                  0 1 0 0 0
                  0 1 0 1 0 "
          />
    </filter>


    <symbol id="hash" viewBox="0 0 100 100">
      <path stroke="var(--hash-color)" stroke-width="5" d="m30,0V100M70,0V100M0,30H100M0,70H100"/>
    </symbol>

    <!-- <symbol id="lines7" viewBox="0 0 100 100"> -->
    <!--   <line x1="-50" y1="-50" x2="150" y2="150" stroke="blue" /> -->
    <!--   <line x1="-50" y1="200" x2="150" y2="-100" stroke="green" /> -->
    <!--   <line x1="50" y1="300" x2="50" y2="50" stroke="yellow" /> -->
    <!--   <line x1="150" y1="50" x2="-50" y2="50" stroke="red" /> -->
    <!-- </symbol> -->

  </defs>

</svg>
